<svg xmlns="http://www.w3.org/2000/svg" xmlns:xlink="http://www.w3.org/1999/xlink" width="600" zoomAndPan="magnify" viewBox="0 0 450 225" height="300" preserveAspectRatio="xMidYMid meet" version="1.0"><defs><clipPath id="ef7ee7f076"><path d="M 403 88.3125 L 410 88.3125 L 410 95 L 403 95 Z M 403 88.3125 " clip-rule="nonzero"></path></clipPath><clipPath id="7fb650edb3"><path d="M 265 88.3125 L 280 88.3125 L 280 126 L 265 126 Z M 265 88.3125 " clip-rule="nonzero"></path></clipPath><clipPath id="e07781e492"><path d="M 183 88.3125 L 190 88.3125 L 190 95 L 183 95 Z M 183 88.3125 " clip-rule="nonzero"></path></clipPath><clipPath id="a631481be5"><path d="M 153 88.3125 L 177 88.3125 L 177 126 L 153 126 Z M 153 88.3125 " clip-rule="nonzero"></path></clipPath></defs><rect x="-45" width="540" fill="#ffffff" y="-22.5" height="270" fill-opacity="1"></rect><rect x="-45" width="540" fill="#000000" y="-22.5" height="270" fill-opacity="1"></rect><path fill="#ffffff" d="M 33.539062 98.730469 L 6.257812 98.730469 L 6.257812 102.429688 L 33.539062 102.429688 Z M 33.539062 98.730469 " fill-opacity="1" fill-rule="nonzero"></path><path fill="#ffffff" d="M 33.539062 106.097656 L 6.257812 106.097656 L 6.257812 109.796875 L 33.539062 109.796875 Z M 33.539062 106.097656 " fill-opacity="1" fill-rule="nonzero"></path><path fill="#ffffff" d="M 33.539062 113.496094 L 6.257812 113.496094 L 6.257812 117.199219 L 33.539062 117.199219 Z M 33.539062 113.496094 " fill-opacity="1" fill-rule="nonzero"></path><path fill="#ffffff" d="M 33.539062 120.859375 L 6.257812 120.859375 L 6.257812 124.558594 L 33.539062 124.558594 Z M 33.539062 120.859375 " fill-opacity="1" fill-rule="nonzero"></path><path fill="#ffffff" d="M 58.335938 119.625 C 60.355469 119.625 61.867188 118.273438 61.867188 116.480469 C 61.867188 114.730469 60.4375 113.457031 58.296875 113.457031 L 53.125 113.457031 L 53.125 119.625 Z M 57.078125 109.042969 C 58.800781 109.042969 60.019531 107.886719 60.019531 106.296875 C 60.019531 104.785156 58.800781 103.628906 57.117188 103.628906 L 53.125 103.628906 L 53.125 109.042969 Z M 47.199219 98.738281 L 58.042969 98.738281 C 62.371094 98.738281 65.859375 101.523438 65.859375 105.339844 C 65.859375 107.808594 64.558594 109.796875 62.371094 110.515625 C 65.988281 111.109375 67.878906 113.695312 67.878906 116.917969 C 67.878906 121.296875 64.347656 124.558594 59.554688 124.558594 L 47.199219 124.558594 Z M 47.199219 98.738281 " fill-opacity="1" fill-rule="nonzero"></path><path fill="#ffffff" d="M 80.957031 98.738281 L 74.902344 98.738281 L 74.902344 124.597656 L 80.957031 124.597656 Z M 80.957031 98.738281 " fill-opacity="1" fill-rule="nonzero"></path><path fill="#ffffff" d="M 102.808594 98.339844 C 107.222656 98.339844 111.132812 100.207031 113.863281 103.152344 L 109.746094 106.457031 C 108.019531 104.625 105.539062 103.511719 102.808594 103.511719 C 97.933594 103.511719 94.148438 107.011719 94.148438 111.667969 C 94.148438 116.324219 97.933594 119.785156 102.808594 119.785156 C 105.539062 119.785156 108.0625 118.667969 109.785156 116.800781 L 113.90625 120.101562 C 111.214844 123.125 107.222656 124.957031 102.808594 124.957031 C 94.695312 124.957031 88.097656 119.347656 88.097656 111.667969 C 88.097656 103.949219 94.695312 98.339844 102.808594 98.339844 Z M 102.808594 98.339844 " fill-opacity="1" fill-rule="nonzero"></path><path fill="#ffffff" d="M 120.214844 98.738281 L 138.875 98.738281 L 138.875 103.910156 L 126.265625 103.910156 L 126.265625 108.761719 L 138.035156 108.761719 L 138.035156 113.855469 L 126.265625 113.855469 L 126.265625 119.386719 L 139.128906 119.386719 L 139.128906 124.597656 L 120.214844 124.597656 Z M 120.214844 98.738281 " fill-opacity="1" fill-rule="nonzero"></path><path fill="#ffffff" d="M 439.621094 98.496094 L 439.621094 102.476562 C 438.234375 100.207031 435.164062 97.742188 429.65625 97.742188 C 421.796875 97.742188 415.449219 103.710938 415.449219 111.828125 C 415.449219 119.941406 421.796875 125.910156 429.65625 125.910156 C 435.164062 125.910156 438.234375 123.445312 439.621094 121.175781 L 439.621094 125.117188 L 443.738281 125.117188 L 443.738281 98.496094 Z M 429.617188 122.25 C 423.816406 122.25 419.527344 117.753906 419.527344 111.785156 C 419.527344 105.820312 423.816406 101.324219 429.617188 101.324219 C 435.628906 101.324219 440.082031 105.820312 440.082031 111.785156 C 440.125 117.753906 435.667969 122.25 429.617188 122.25 Z M 429.617188 122.25 " fill-opacity="1" fill-rule="nonzero"></path><path fill="#ffffff" d="M 408.550781 98.496094 L 404.429688 98.496094 L 404.429688 125.113281 L 408.550781 125.113281 Z M 408.550781 98.496094 " fill-opacity="1" fill-rule="nonzero"></path><g clip-path="url(#ef7ee7f076)"><path fill="#ffffff" d="M 406.5 94.082031 C 407.929688 94.082031 409.273438 92.96875 409.273438 91.457031 C 409.273438 89.902344 407.929688 88.828125 406.5 88.828125 C 405.027344 88.828125 403.726562 89.945312 403.726562 91.457031 C 403.726562 92.96875 405.027344 94.082031 406.5 94.082031 Z M 406.5 94.082031 " fill-opacity="1" fill-rule="nonzero"></path></g><path fill="#ffffff" d="M 382.578125 125.074219 L 386.699219 125.074219 L 386.699219 109.597656 C 386.699219 105.101562 389.9375 102.117188 394.304688 102.117188 C 395.484375 102.117188 396.40625 102.238281 397.082031 102.398438 L 397.082031 98.179688 C 396.703125 98.140625 395.988281 98.058594 395.359375 98.058594 C 391.113281 98.058594 388.085938 100.128906 386.699219 102.992188 L 386.699219 98.496094 L 382.578125 98.496094 Z M 382.578125 125.074219 " fill-opacity="1" fill-rule="nonzero"></path><path fill="#ffffff" d="M 370.472656 98.496094 L 370.472656 102.476562 C 369.085938 100.207031 366.019531 97.742188 360.511719 97.742188 C 352.652344 97.742188 346.304688 103.710938 346.304688 111.828125 C 346.304688 119.941406 352.652344 125.910156 360.511719 125.910156 C 366.019531 125.910156 369.085938 123.445312 370.472656 121.175781 L 370.472656 125.117188 L 374.59375 125.117188 L 374.59375 98.496094 Z M 360.472656 122.25 C 354.671875 122.25 350.382812 117.753906 350.382812 111.785156 C 350.382812 105.820312 354.671875 101.324219 360.472656 101.324219 C 366.480469 101.324219 370.9375 105.820312 370.9375 111.785156 C 370.980469 117.753906 366.523438 122.25 360.472656 122.25 Z M 360.472656 122.25 " fill-opacity="1" fill-rule="nonzero"></path><path fill="#ffffff" d="M 315.75 111.785156 C 315.75 119.902344 322.433594 125.871094 330.714844 125.871094 C 334.957031 125.871094 338.617188 124.519531 341.347656 121.851562 L 338.828125 119.105469 C 336.722656 121.175781 333.863281 122.210938 330.671875 122.210938 C 324.410156 122.210938 319.871094 117.714844 319.871094 111.746094 C 319.871094 105.777344 324.449219 101.28125 330.671875 101.28125 C 333.824219 101.28125 336.679688 102.355469 338.828125 104.386719 L 341.347656 101.640625 C 338.617188 99.015625 334.917969 97.621094 330.714844 97.621094 C 322.476562 97.703125 315.75 103.667969 315.75 111.785156 Z M 315.75 111.785156 " fill-opacity="1" fill-rule="nonzero"></path><path fill="#ffffff" d="M 310.363281 110.949219 C 310.363281 103.628906 305.238281 97.703125 297.417969 97.703125 C 289.390625 97.703125 283.378906 103.3125 283.378906 111.90625 L 283.378906 112.105469 C 283.378906 120.378906 289.179688 125.792969 297.542969 125.792969 C 301.621094 125.792969 305.402344 124.796875 308.933594 121.097656 L 306.203125 118.550781 C 303.847656 120.898438 301.621094 122.25 297.542969 122.25 C 291.617188 122.25 287.707031 118.511719 287.5 112.660156 L 310.28125 112.660156 C 310.363281 111.867188 310.363281 110.949219 310.363281 110.949219 Z M 287.75 109.199219 C 288.046875 104.863281 292.246094 101.324219 297.375 101.324219 C 302.125 101.324219 305.910156 104.902344 305.910156 109.199219 Z M 287.75 109.199219 " fill-opacity="1" fill-rule="nonzero"></path><g clip-path="url(#7fb650edb3)"><path fill="#ffffff" d="M 269.46875 125.074219 L 273.589844 125.074219 L 273.589844 102.117188 L 279.851562 102.117188 L 279.851562 98.496094 L 273.589844 98.496094 L 273.589844 88.3125 L 269.46875 88.3125 L 269.46875 98.496094 L 265.894531 98.496094 L 265.894531 102.117188 L 269.46875 102.117188 Z M 269.46875 125.074219 " fill-opacity="1" fill-rule="nonzero"></path></g><path fill="#ffffff" d="M 245.679688 97.703125 C 237.441406 97.703125 230.71875 103.671875 230.71875 111.785156 C 230.71875 119.902344 237.402344 125.871094 245.679688 125.871094 C 253.917969 125.871094 260.644531 119.902344 260.644531 111.785156 C 260.601562 103.671875 253.917969 97.703125 245.679688 97.703125 Z M 245.679688 122.25 C 239.417969 122.25 234.878906 117.753906 234.878906 111.785156 C 234.878906 105.820312 239.460938 101.324219 245.679688 101.324219 C 251.941406 101.324219 256.484375 105.820312 256.484375 111.785156 C 256.484375 117.753906 251.902344 122.25 245.679688 122.25 Z M 245.679688 122.25 " fill-opacity="1" fill-rule="nonzero"></path><path fill="#ffffff" d="M 210.914062 97.703125 C 205.410156 97.703125 202.339844 100.167969 200.953125 102.4375 L 200.953125 98.457031 L 196.835938 98.457031 L 196.835938 135.261719 L 200.953125 135.261719 L 200.953125 121.097656 C 202.339844 123.363281 205.410156 125.832031 210.914062 125.832031 C 218.773438 125.832031 225.121094 119.863281 225.121094 111.746094 C 225.164062 103.671875 218.773438 97.703125 210.914062 97.703125 Z M 210.914062 122.25 C 204.90625 122.25 200.449219 117.753906 200.449219 111.785156 C 200.449219 105.820312 204.90625 101.324219 210.914062 101.324219 C 216.714844 101.324219 221.003906 105.820312 221.003906 111.785156 C 221.003906 117.753906 216.714844 122.25 210.914062 122.25 Z M 210.914062 122.25 " fill-opacity="1" fill-rule="nonzero"></path><path fill="#ffffff" d="M 188.726562 98.496094 L 184.609375 98.496094 L 184.609375 125.113281 L 188.726562 125.113281 Z M 188.726562 98.496094 " fill-opacity="1" fill-rule="nonzero"></path><g clip-path="url(#e07781e492)"><path fill="#ffffff" d="M 186.660156 94.082031 C 188.132812 94.082031 189.433594 92.96875 189.433594 91.457031 C 189.433594 89.902344 188.089844 88.828125 186.660156 88.828125 C 185.230469 88.828125 183.886719 89.945312 183.886719 91.457031 C 183.886719 92.96875 185.230469 94.082031 186.660156 94.082031 Z M 186.660156 94.082031 " fill-opacity="1" fill-rule="nonzero"></path></g><g clip-path="url(#a631481be5)"><path fill="#ffffff" d="M 153.667969 125.074219 L 157.785156 125.074219 L 157.785156 109.199219 C 157.785156 104.703125 160.980469 101.71875 165.4375 101.71875 C 169.808594 101.71875 172.414062 104.503906 172.414062 108.960938 L 172.414062 125.117188 L 176.535156 125.117188 L 176.535156 108.085938 C 176.535156 102.117188 172.707031 98.058594 166.445312 98.058594 C 162.199219 98.058594 159.214844 100.128906 157.785156 102.992188 L 157.785156 88.3125 L 153.667969 88.3125 Z M 153.667969 125.074219 " fill-opacity="1" fill-rule="nonzero"></path></g></svg>