<svg xmlns="http://www.w3.org/2000/svg" xmlns:xlink="http://www.w3.org/1999/xlink" width="600" zoomAndPan="magnify" viewBox="0 0 450 225" height="300" preserveAspectRatio="xMidYMid meet" version="1.0"><defs><clipPath id="fa18ab821c"><path d="M 264 87.953125 L 279 87.953125 L 279 125 L 264 125 Z M 264 87.953125 " clip-rule="nonzero"></path></clipPath><clipPath id="787163eaa9"><path d="M 153 87.953125 L 176 87.953125 L 176 125 L 153 125 Z M 153 87.953125 " clip-rule="nonzero"></path></clipPath></defs><rect x="-45" width="540" fill="#ffffff" y="-22.5" height="270" fill-opacity="1"></rect><rect x="-45" width="540" fill="#ffffff" y="-22.5" height="270" fill-opacity="1"></rect><path fill="#003a70" d="M 34.070312 98.292969 L 7.03125 98.292969 L 7.03125 101.964844 L 34.070312 101.964844 Z M 34.070312 98.292969 " fill-opacity="1" fill-rule="nonzero"></path><path fill="#003a70" d="M 34.070312 105.601562 L 7.03125 105.601562 L 7.03125 109.273438 L 34.070312 109.273438 Z M 34.070312 105.601562 " fill-opacity="1" fill-rule="nonzero"></path><path fill="#003a70" d="M 34.070312 112.945312 L 7.03125 112.945312 L 7.03125 116.617188 L 34.070312 116.617188 Z M 34.070312 112.945312 " fill-opacity="1" fill-rule="nonzero"></path><path fill="#003a70" d="M 34.070312 120.246094 L 7.03125 120.246094 L 7.03125 123.917969 L 34.070312 123.917969 Z M 34.070312 120.246094 " fill-opacity="1" fill-rule="nonzero"></path><path fill="#003a70" d="M 58.648438 119.023438 C 60.648438 119.023438 62.148438 117.683594 62.148438 115.90625 C 62.148438 114.167969 60.730469 112.90625 58.605469 112.90625 L 53.480469 112.90625 L 53.480469 119.023438 Z M 57.398438 108.523438 C 59.105469 108.523438 60.3125 107.378906 60.3125 105.800781 C 60.3125 104.300781 59.105469 103.152344 57.441406 103.152344 L 53.480469 103.152344 L 53.480469 108.523438 Z M 47.609375 98.296875 L 58.355469 98.296875 C 62.648438 98.296875 66.105469 101.0625 66.105469 104.851562 C 66.105469 107.300781 64.8125 109.273438 62.648438 109.984375 C 66.230469 110.574219 68.105469 113.140625 68.105469 116.339844 C 68.105469 120.683594 64.605469 123.917969 59.855469 123.917969 L 47.609375 123.917969 Z M 47.609375 98.296875 " fill-opacity="1" fill-rule="nonzero"></path><path fill="#003a70" d="M 81.066406 98.296875 L 75.066406 98.296875 L 75.066406 123.960938 L 81.066406 123.960938 Z M 81.066406 98.296875 " fill-opacity="1" fill-rule="nonzero"></path><path fill="#003a70" d="M 102.722656 97.902344 C 107.097656 97.902344 110.972656 99.757812 113.679688 102.679688 L 109.597656 105.957031 C 107.890625 104.140625 105.433594 103.035156 102.722656 103.035156 C 97.890625 103.035156 94.144531 106.507812 94.144531 111.128906 C 94.144531 115.746094 97.890625 119.183594 102.722656 119.183594 C 105.433594 119.183594 107.933594 118.078125 109.640625 116.222656 L 113.722656 119.5 C 111.054688 122.5 107.097656 124.316406 102.722656 124.316406 C 94.683594 124.316406 88.144531 118.746094 88.144531 111.128906 C 88.144531 103.46875 94.683594 97.902344 102.722656 97.902344 Z M 102.722656 97.902344 " fill-opacity="1" fill-rule="nonzero"></path><path fill="#003a70" d="M 119.972656 98.296875 L 138.472656 98.296875 L 138.472656 103.429688 L 125.972656 103.429688 L 125.972656 108.246094 L 137.636719 108.246094 L 137.636719 113.300781 L 125.972656 113.300781 L 125.972656 118.789062 L 138.722656 118.789062 L 138.722656 123.960938 L 119.972656 123.960938 Z M 119.972656 98.296875 " fill-opacity="1" fill-rule="nonzero"></path><path fill="#00abc8" d="M 436.546875 98.0625 L 436.546875 102.007812 C 435.171875 99.757812 432.128906 97.3125 426.671875 97.3125 C 418.882812 97.3125 412.589844 103.234375 412.589844 111.285156 C 412.589844 119.339844 418.882812 125.261719 426.671875 125.261719 C 432.128906 125.261719 435.171875 122.8125 436.546875 120.5625 L 436.546875 124.472656 L 440.628906 124.472656 L 440.628906 98.0625 Z M 426.628906 121.628906 C 420.878906 121.628906 416.632812 117.167969 416.632812 111.246094 C 416.632812 105.324219 420.878906 100.863281 426.628906 100.863281 C 432.585938 100.863281 437.003906 105.324219 437.003906 111.246094 C 437.042969 117.167969 432.628906 121.628906 426.628906 121.628906 Z M 426.628906 121.628906 " fill-opacity="1" fill-rule="nonzero"></path><path fill="#00abc8" d="M 405.753906 98.0625 L 401.667969 98.0625 L 401.667969 124.472656 L 405.753906 124.472656 Z M 405.753906 98.0625 " fill-opacity="1" fill-rule="nonzero"></path><path fill="#00abc8" d="M 403.71875 93.679688 C 405.136719 93.679688 406.46875 92.574219 406.46875 91.074219 C 406.46875 89.535156 405.136719 88.46875 403.71875 88.46875 C 402.261719 88.46875 400.96875 89.574219 400.96875 91.074219 C 400.96875 92.574219 402.261719 93.679688 403.71875 93.679688 Z M 403.71875 93.679688 " fill-opacity="1" fill-rule="nonzero"></path><path fill="#00abc8" d="M 380.011719 124.433594 L 384.09375 124.433594 L 384.09375 109.074219 C 384.09375 104.613281 387.300781 101.652344 391.632812 101.652344 C 392.800781 101.652344 393.714844 101.773438 394.382812 101.929688 L 394.382812 97.746094 C 394.007812 97.707031 393.300781 97.625 392.675781 97.625 C 388.46875 97.625 385.46875 99.679688 384.09375 102.523438 L 384.09375 98.0625 L 380.011719 98.0625 Z M 380.011719 124.433594 " fill-opacity="1" fill-rule="nonzero"></path><path fill="#00abc8" d="M 368.011719 98.0625 L 368.011719 102.007812 C 366.636719 99.757812 363.597656 97.3125 358.140625 97.3125 C 350.347656 97.3125 344.058594 103.234375 344.058594 111.285156 C 344.058594 119.339844 350.347656 125.261719 358.140625 125.261719 C 363.597656 125.261719 366.636719 122.8125 368.011719 120.5625 L 368.011719 124.472656 L 372.09375 124.472656 L 372.09375 98.0625 Z M 358.097656 121.628906 C 352.351562 121.628906 348.097656 117.167969 348.097656 111.246094 C 348.097656 105.324219 352.351562 100.863281 358.097656 100.863281 C 364.054688 100.863281 368.472656 105.324219 368.472656 111.246094 C 368.511719 117.167969 364.097656 121.628906 358.097656 121.628906 Z M 358.097656 121.628906 " fill-opacity="1" fill-rule="nonzero"></path><path fill="#00abc8" d="M 313.773438 111.246094 C 313.773438 119.300781 320.398438 125.222656 328.605469 125.222656 C 332.8125 125.222656 336.4375 123.878906 339.144531 121.234375 L 336.648438 118.511719 C 334.5625 120.5625 331.730469 121.589844 328.566406 121.589844 C 322.355469 121.589844 317.859375 117.128906 317.859375 111.207031 C 317.859375 105.285156 322.398438 100.824219 328.566406 100.824219 C 331.6875 100.824219 334.519531 101.890625 336.648438 103.902344 L 339.144531 101.179688 C 336.4375 98.574219 332.769531 97.191406 328.605469 97.191406 C 320.441406 97.269531 313.773438 103.191406 313.773438 111.246094 Z M 313.773438 111.246094 " fill-opacity="1" fill-rule="nonzero"></path><path fill="#00abc8" d="M 308.4375 110.417969 C 308.4375 103.152344 303.355469 97.269531 295.605469 97.269531 C 287.648438 97.269531 281.691406 102.839844 281.691406 111.367188 L 281.691406 111.5625 C 281.691406 119.773438 287.441406 125.144531 295.730469 125.144531 C 299.773438 125.144531 303.519531 124.15625 307.019531 120.484375 L 304.3125 117.957031 C 301.980469 120.289062 299.773438 121.628906 295.730469 121.628906 C 289.859375 121.628906 285.984375 117.917969 285.773438 112.117188 L 308.355469 112.117188 C 308.4375 111.324219 308.4375 110.417969 308.4375 110.417969 Z M 286.023438 108.679688 C 286.316406 104.378906 290.480469 100.863281 295.5625 100.863281 C 300.273438 100.863281 304.019531 104.417969 304.019531 108.679688 Z M 286.023438 108.679688 " fill-opacity="1" fill-rule="nonzero"></path><g clip-path="url(#fa18ab821c)"><path fill="#00abc8" d="M 267.90625 124.433594 L 271.988281 124.433594 L 271.988281 101.652344 L 278.195312 101.652344 L 278.195312 98.0625 L 271.988281 98.0625 L 271.988281 87.953125 L 267.90625 87.953125 L 267.90625 98.0625 L 264.363281 98.0625 L 264.363281 101.652344 L 267.90625 101.652344 Z M 267.90625 124.433594 " fill-opacity="1" fill-rule="nonzero"></path></g><path fill="#00abc8" d="M 244.328125 97.269531 C 236.160156 97.269531 229.496094 103.191406 229.496094 111.246094 C 229.496094 119.300781 236.121094 125.222656 244.328125 125.222656 C 252.492188 125.222656 259.160156 119.300781 259.160156 111.246094 C 259.117188 103.191406 252.492188 97.269531 244.328125 97.269531 Z M 244.328125 121.628906 C 238.121094 121.628906 233.621094 117.167969 233.621094 111.246094 C 233.621094 105.324219 238.164062 100.863281 244.328125 100.863281 C 250.535156 100.863281 255.035156 105.324219 255.035156 111.246094 C 255.035156 117.167969 250.492188 121.628906 244.328125 121.628906 Z M 244.328125 121.628906 " fill-opacity="1" fill-rule="nonzero"></path><path fill="#00abc8" d="M 209.871094 97.269531 C 204.414062 97.269531 201.371094 99.71875 199.996094 101.96875 L 199.996094 98.023438 L 195.914062 98.023438 L 195.914062 134.539062 L 199.996094 134.539062 L 199.996094 120.484375 C 201.371094 122.734375 204.414062 125.183594 209.871094 125.183594 C 217.660156 125.183594 223.953125 119.261719 223.953125 111.207031 C 223.992188 103.191406 217.660156 97.269531 209.871094 97.269531 Z M 209.871094 121.628906 C 203.914062 121.628906 199.496094 117.167969 199.496094 111.246094 C 199.496094 105.324219 203.914062 100.863281 209.871094 100.863281 C 215.621094 100.863281 219.871094 105.324219 219.871094 111.246094 C 219.871094 117.167969 215.621094 121.628906 209.871094 121.628906 Z M 209.871094 121.628906 " fill-opacity="1" fill-rule="nonzero"></path><path fill="#00abc8" d="M 187.878906 98.0625 L 183.796875 98.0625 L 183.796875 124.472656 L 187.878906 124.472656 Z M 187.878906 98.0625 " fill-opacity="1" fill-rule="nonzero"></path><path fill="#00abc8" d="M 185.832031 93.679688 C 187.289062 93.679688 188.582031 92.574219 188.582031 91.074219 C 188.582031 89.535156 187.246094 88.46875 185.832031 88.46875 C 184.414062 88.46875 183.082031 89.574219 183.082031 91.074219 C 183.082031 92.574219 184.414062 93.679688 185.832031 93.679688 Z M 185.832031 93.679688 " fill-opacity="1" fill-rule="nonzero"></path><g clip-path="url(#787163eaa9)"><path fill="#00abc8" d="M 153.132812 124.433594 L 157.214844 124.433594 L 157.214844 108.679688 C 157.214844 104.21875 160.378906 101.257812 164.796875 101.257812 C 169.128906 101.257812 171.710938 104.023438 171.710938 108.445312 L 171.710938 124.472656 L 175.796875 124.472656 L 175.796875 107.574219 C 175.796875 101.652344 172.003906 97.625 165.796875 97.625 C 161.589844 97.625 158.632812 99.679688 157.214844 102.523438 L 157.214844 87.953125 L 153.132812 87.953125 Z M 153.132812 124.433594 " fill-opacity="1" fill-rule="nonzero"></path></g></svg>